<svg version="1.2" xmlns="http://www.w3.org/2000/svg" viewBox="0 0 2976 2976" width="572" height="573">
	<title>course-ai</title>
	<defs>
		<linearGradient id="g1" x1="2390.9" y1="5197.4" x2="-360.4" y2="2268.7" gradientUnits="userSpaceOnUse">
			<stop offset="0" stop-color="#dae3fe"/>
			<stop offset="1" stop-color="#e9effd"/>
		</linearGradient>
		<linearGradient id="g2" x1="1087.2" y1="2888.9" x2="1922.4" y2="1062.8" gradientUnits="userSpaceOnUse">
			<stop offset="0" stop-color="#09005d"/>
			<stop offset="1" stop-color="#1a0f91"/>
		</linearGradient>
		<linearGradient id="g3" x1="2605.1" y1="322.7" x2="1953.5" y2="2378.9" gradientUnits="userSpaceOnUse">
			<stop offset="0" stop-color="#09005d"/>
			<stop offset="1" stop-color="#1a0f91"/>
		</linearGradient>
		<linearGradient id="g4" x1="1832" y1="2350.8" x2="1378.7" y2="3192.6" gradientUnits="userSpaceOnUse">
			<stop offset="0" stop-color="#09005d"/>
			<stop offset="1" stop-color="#1a0f91"/>
		</linearGradient>
		<clipPath clipPathUnits="userSpaceOnUse" id="cp1">
			<path d="m2705.73 1960.25h-2245.36c-18.32 0-33.16-14.85-33.16-33.16v-1669.83c0-18.31 14.84-33.16 33.16-33.16h2245.36c18.32 0 33.16 14.85 33.16 33.16v1669.83c0 18.31-14.84 33.16-33.16 33.16z"/>
		</clipPath>
		<linearGradient id="g5" x1="2559.9" y1="911.9" x2="1912.9" y2="1948.9" gradientUnits="userSpaceOnUse">
			<stop offset="0" stop-color="#febbba"/>
			<stop offset="1" stop-color="#ff928e"/>
		</linearGradient>
		<linearGradient id="g6" x1="70.3" y1="1811.3" x2="501" y2="837.6" gradientUnits="userSpaceOnUse">
			<stop offset="0" stop-color="#09005d"/>
			<stop offset="1" stop-color="#1a0f91"/>
		</linearGradient>
		<linearGradient id="g7" x1="2727.3" y1="1346.5" x2="2599.5" y2="1499.8" gradientUnits="userSpaceOnUse">
			<stop offset="0" stop-color="#ff928e"/>
			<stop offset="1" stop-color="#fe7062"/>
		</linearGradient>
		<linearGradient id="g8" x1="1519.8" y1="740.5" x2="1563.3" y2="1042.4" gradientUnits="userSpaceOnUse">
			<stop offset="0" stop-color="#febbba"/>
			<stop offset="1" stop-color="#ff928e"/>
		</linearGradient>
		<linearGradient id="g9" x1="1311" y1="1105.5" x2="735.5" y2="735.2" gradientUnits="userSpaceOnUse">
			<stop offset="0" stop-color="#febbba"/>
			<stop offset="1" stop-color="#ff928e"/>
		</linearGradient>
		<linearGradient id="g10" x1="562.7" y1="1814" x2="1078.6" y2="647.5" gradientUnits="userSpaceOnUse">
			<stop offset="0" stop-color="#09005d"/>
			<stop offset="1" stop-color="#1a0f91"/>
		</linearGradient>
		<linearGradient id="g11" x1="1468" y1="1158.3" x2="608.5" y2="605.2" gradientUnits="userSpaceOnUse">
			<stop offset="0" stop-color="#febbba"/>
			<stop offset="1" stop-color="#ff928e"/>
		</linearGradient>
		<linearGradient id="g12" x1="-616" y1="3614.8" x2="223" y2="2100.4" gradientUnits="userSpaceOnUse">
			<stop offset="0" stop-color="#febbba"/>
			<stop offset="1" stop-color="#ff928e"/>
		</linearGradient>
		<linearGradient id="g13" x1="909.3" y1="3625.7" x2="1155.4" y2="3623.4" gradientUnits="userSpaceOnUse">
			<stop offset="0" stop-color="#09005d"/>
			<stop offset="1" stop-color="#1a0f91"/>
		</linearGradient>
		<linearGradient id="g14" x1="2280.5" y1="4350.4" x2="263" y2="5016.8" gradientUnits="userSpaceOnUse">
			<stop offset="0" stop-color="#febbba"/>
			<stop offset="1" stop-color="#ff928e"/>
		</linearGradient>
		<linearGradient id="g15" x1="1133.4" y1="3694.8" x2="1426" y2="3692.1" gradientUnits="userSpaceOnUse">
			<stop offset="0" stop-color="#09005d"/>
			<stop offset="1" stop-color="#1a0f91"/>
		</linearGradient>
		<linearGradient id="g16" x1="-935.4" y1="3608.2" x2="1605.3" y2="922.1" gradientUnits="userSpaceOnUse">
			<stop offset="0" stop-color="#53d8ff"/>
			<stop offset="1" stop-color="#3840f7"/>
		</linearGradient>
		<linearGradient id="g17" x1="182.1" y1="1742.2" x2="1633.6" y2="-409.8" gradientUnits="userSpaceOnUse">
			<stop offset="0" stop-color="#febbba"/>
			<stop offset="1" stop-color="#ff928e"/>
		</linearGradient>
		<linearGradient id="g18" x1="147.9" y1="-248.2" x2="754.1" y2="806.6" gradientUnits="userSpaceOnUse">
			<stop offset="0" stop-color="#4f52ff"/>
			<stop offset="1" stop-color="#4042e2"/>
		</linearGradient>
		<linearGradient id="g19" x1="295" y1="512.4" x2="385.3" y2="-267.6" gradientUnits="userSpaceOnUse">
			<stop offset="0" stop-color="#4f52ff"/>
			<stop offset="1" stop-color="#4042e2"/>
		</linearGradient>
		<linearGradient id="g20" x1="1339.7" y1="-319.5" x2="1186.9" y2="451.5" gradientUnits="userSpaceOnUse">
			<stop offset="0" stop-color="#4f52ff"/>
			<stop offset="1" stop-color="#4042e2"/>
		</linearGradient>
		<linearGradient id="g21" x1="2905.8" y1="1380.6" x2="2800" y2="2400.2" gradientUnits="userSpaceOnUse">
			<stop offset="0" stop-color="#4f52ff"/>
			<stop offset="1" stop-color="#4042e2"/>
		</linearGradient>
		<linearGradient id="g22" x1="1871.7" y1="2608.2" x2="1757.9" y2="2489.3" gradientUnits="userSpaceOnUse">
			<stop offset="0" stop-color="#09005d"/>
			<stop offset="1" stop-color="#1a0f91"/>
		</linearGradient>
		<linearGradient id="g23" x1="1875" y1="2170" x2="2278.1" y2="2170" gradientUnits="userSpaceOnUse">
			<stop offset="0" stop-color="#e1473d"/>
			<stop offset="1" stop-color="#e9605a"/>
		</linearGradient>
		<linearGradient id="g24" x1="1763.8" y1="2860.5" x2="1555.3" y2="2707.5" gradientUnits="userSpaceOnUse">
			<stop offset="0" stop-color="#09005d"/>
			<stop offset="1" stop-color="#1a0f91"/>
		</linearGradient>
		<linearGradient id="g25" x1="1803.5" y1="2435.1" x2="2390.2" y2="2435.1" gradientUnits="userSpaceOnUse">
			<stop offset="0" stop-color="#e1473d"/>
			<stop offset="1" stop-color="#e9605a"/>
		</linearGradient>
		<linearGradient id="g26" x1="1806.9" y1="2556" x2="2258.7" y2="2018.7" gradientUnits="userSpaceOnUse">
			<stop offset="0" stop-color="#febbba"/>
			<stop offset="1" stop-color="#ff928e"/>
		</linearGradient>
		<linearGradient id="g27" x1="3690.3" y1="1826.2" x2="2901" y2="2358.5" gradientUnits="userSpaceOnUse">
			<stop offset="0" stop-color="#ff928e"/>
			<stop offset="1" stop-color="#fe7062"/>
		</linearGradient>
		<linearGradient id="g28" x1="2333.3" y1="2360.1" x2="1767.4" y2="3134.2" gradientUnits="userSpaceOnUse">
			<stop offset="0" stop-color="#febbba"/>
			<stop offset="1" stop-color="#ff928e"/>
		</linearGradient>
		<linearGradient id="g29" x1="2477.2" y1="2003.1" x2="2466.3" y2="2101.2" gradientUnits="userSpaceOnUse">
			<stop offset="0" stop-color="#febbba"/>
			<stop offset="1" stop-color="#ff928e"/>
		</linearGradient>
		<linearGradient id="g30" x1="2498.8" y1="1938.7" x2="2436.4" y2="2091.3" gradientUnits="userSpaceOnUse">
			<stop offset="0" stop-color="#febbba"/>
			<stop offset="1" stop-color="#ff928e"/>
		</linearGradient>
		<linearGradient id="g31" x1="2168.4" y1="2071.5" x2="2356" y2="1735.2" gradientUnits="userSpaceOnUse">
			<stop offset="0" stop-color="#09005d"/>
			<stop offset="1" stop-color="#1a0f91"/>
		</linearGradient>
		<linearGradient id="g32" x1="2479.5" y1="1926.7" x2="2434.1" y2="2037.9" gradientUnits="userSpaceOnUse">
			<stop offset="0" stop-color="#febbba"/>
			<stop offset="1" stop-color="#ff928e"/>
		</linearGradient>
		<linearGradient id="g33" x1="2057.4" y1="2052.9" x2="2221.3" y2="2349.3" gradientUnits="userSpaceOnUse">
			<stop offset="0" stop-color="#09005d"/>
			<stop offset="1" stop-color="#1a0f91"/>
		</linearGradient>
		<linearGradient id="g34" x1="2289.4" y1="2036.8" x2="2111.7" y2="2570" gradientUnits="userSpaceOnUse">
			<stop offset="0" stop-color="#09005d"/>
			<stop offset="1" stop-color="#1a0f91"/>
		</linearGradient>
		<linearGradient id="g35" x1="2525.7" y1="1444.3" x2="2535.8" y2="1882.4" gradientUnits="userSpaceOnUse">
			<stop offset="0" stop-color="#e1473d"/>
			<stop offset="1" stop-color="#e9605a"/>
		</linearGradient>
		<linearGradient id="g36" x1="2465.7" y1="1429.4" x2="2476.1" y2="1876.6" gradientUnits="userSpaceOnUse">
			<stop offset="0" stop-color="#e1473d"/>
			<stop offset="1" stop-color="#e9605a"/>
		</linearGradient>
		<linearGradient id="g37" x1="2518.3" y1="1410" x2="2528.9" y2="1865.2" gradientUnits="userSpaceOnUse">
			<stop offset="0" stop-color="#e1473d"/>
			<stop offset="1" stop-color="#e9605a"/>
		</linearGradient>
	</defs>
	<style>
		.s0 { fill: url(#g1) } 
		.s1 { fill: url(#g2) } 
		.s2 { fill: url(#g3) } 
		.s3 { fill: #91b3fa } 
		.s4 { fill: url(#g4) } 
		.s5 { fill: #bdd0fb } 
		.s6 { fill: url(#g5) } 
		.s7 { fill: url(#g6) } 
		.s8 { fill: url(#g7) } 
		.s9 { fill: url(#g8) } 
		.s10 { fill: url(#g9) } 
		.s11 { fill: url(#g10) } 
		.s12 { fill: url(#g11) } 
		.s13 { fill: url(#g12) } 
		.s14 { fill: url(#g13) } 
		.s15 { fill: url(#g14) } 
		.s16 { fill: url(#g15) } 
		.s17 { fill: url(#g16) } 
		.s18 { fill: url(#g17) } 
		.s19 { fill: url(#g18) } 
		.s20 { fill: url(#g19) } 
		.s21 { fill: url(#g20) } 
		.s22 { fill: url(#g21) } 
		.s23 { fill: url(#g22) } 
		.s24 { fill: url(#g23) } 
		.s25 { fill: url(#g24) } 
		.s26 { fill: url(#g25) } 
		.s27 { fill: url(#g26) } 
		.s28 { fill: url(#g27) } 
		.s29 { fill: url(#g28) } 
		.s30 { fill: url(#g29) } 
		.s31 { fill: url(#g30) } 
		.s32 { fill: url(#g31) } 
		.s33 { fill: url(#g32) } 
		.s34 { fill: url(#g33) } 
		.s35 { fill: url(#g34) } 
		.s36 { fill: url(#g35) } 
		.s37 { fill: url(#g36) } 
		.s38 { fill: url(#g37) } 
		.s39 { fill: #7d97f4 } 
		.s40 { opacity: .7;fill: #ffffff } 
	</style>
	<g id="Illustration">
		<g id="&lt;Group&gt;">
			<path id="&lt;Path&gt;" class="s0" d="m2497.8 2414.9c-71.6 73.8-135.7 117.2-184.7 149.9-478.4 319.5-1025.3 227.4-1194.4 195.9-272.8-50.7-503.1-86.6-701-265.3-449.6-406.2-427.7-1253.5-84.2-1778.4 40.8-62.2 383.8-570.7 931.9-642.3 13.4-1.8 23.4-2.8 32.1-3.7 84.8-9 610.2-56.4 1038.7 302.6 61.3 51.3 160 144 251.5 285.4 334.6 516.8 335.7 1317.2-89.9 1755.9z"/>
			<g id="&lt;Group&gt;">
				<g id="&lt;Group&gt;">
					<path id="&lt;Path&gt;" class="s1" d="m1873.6 2117.1l84.4 501.1h-648.2l55.9-501.1z"/>
					<path id="&lt;Path&gt;" class="s2" d="m400.5 756c398.8-9 1952.9 26.7 2304.1 37.9 63.4 2.1 116.3 48.9 126.1 111.6 46.2 297.6 33.7 938.7 26 1205.3-2 68.6-57.5 123.5-126.1 124.5-399 5.9-1865.1-20.3-2284.2-31.1-94.4-2.5-169.6-79.7-169.6-174.1v-1147.6c0-68.8 54.9-125 123.7-126.5z"/>
					<path id="&lt;Path&gt;" class="s3" d="m428.5 799.2l2278 46c39.1 0.9 70.2 32.9 70 72l-3.7 1080.6c-0.2 54.6-45 98.6-99.6 97.8l-2225.1-27.5c-55.1-0.8-99.3-45.7-99.3-100.9v-1090.3c0-43.7 36-78.8 79.7-77.7z"/>
					<path id="&lt;Path&gt;" class="s3" d="m2789.6 2140.6q-0.1 0-0.1 0l-2440.8-41.6c-1.9 0-3.4-1.6-3.3-3.5 0-1.8 1.5-3.3 3.4-3.3q0 0 0 0l2440.8 41.6c1.9 0 3.4 1.5 3.4 3.4 0 1.9-1.6 3.4-3.4 3.4z"/>
					<path id="&lt;Path&gt;" class="s4" d="m2097.6 2720.7h-948.7c-25.8 0-45.1-18.4-40.1-38.1l12.1-48.1c3.7-14.5 19.6-25.1 38.5-25.7l914.6-28.6c19.8-0.6 37.3 9.9 41.6 25l21.9 76.6c5.8 20-13.7 38.9-39.9 38.9z"/>
					<path id="&lt;Path&gt;" class="s3" d="m1659.6 2622.1c-1.8 0-3.4-1.5-3.4-3.3 0-1.9 1.5-3.5 3.4-3.5l39.2-0.6c1.8 0 3.4 1.5 3.4 3.4 0.1 1.9-1.5 3.4-3.3 3.5l-39.2 0.5q-0.1 0-0.1 0z"/>
					<path id="&lt;Path&gt;" class="s3" d="m1143.9 2694.5q-0.3 0-0.6-0.1c-1.8-0.3-3.1-2-2.8-3.9l5.6-35c3-19 19.2-33 38.4-33.2l415.7-6.1c1.7-0.1 3.4 1.5 3.4 3.3 0.1 1.9-1.4 3.5-3.3 3.5l-415.7 6.1c-15.9 0.2-29.2 11.8-31.7 27.5l-5.6 35c-0.3 1.7-1.8 2.9-3.4 2.9z"/>
				</g>
				<path id="&lt;Path&gt;" class="s5" d="m2459.7 1960.2h-2006.1c-18.3 0-33.1-14.8-33.1-33.1v-1007.3c0-18.3 14.8-33.2 33.1-33.2h2006.1c18.3 0 33.1 14.9 33.1 33.2v1007.3c0 18.3-14.8 33.1-33.1 33.1z"/>
				<g id="&lt;Clip Group&gt;" clip-path="url(#cp1)">
					<g id="&lt;Group&gt;">
						<path id="&lt;Path&gt;" class="s6" d="m1917.5 1081.6c0 0 128.7 252.1-65.5 425.4-194.3 173.3-361.2 50-361.2 50l-108.2-342.9c0 0 218 287.5 372.7 187.9 154.8-99.5 115.1-235.9 88.5-338.9-12.5-27.8-3.7-61.6 14.6-76.8 21.3-17.6 23.2-45.6 23.2-45.6 0 0 27.5 31.8 12.2 55.1-5.3 8.1-5.3 15.8-3 22.5q3.3-1.6 7-3.3c49.1-21.5 72.4-82.1 82.1-116.9 2.6-9.4 15.4-10.7 19.9-2.1 65.8 125.8-82.3 185.6-82.3 185.6z"/>
						<path id="&lt;Path&gt;" class="s7" d="m1362.8 942.9c143.5 171.4 6.9 259.6 6.9 259.6 5.9 207.4-287.8 168.6-287.8 168.6-103.2 100.5-277.9 42.2-312.4-40.4-34.5-82.6 38.4-119.2 38.4-119.2-89.9-26.9-175.7-130.2-82.4-318 93.4-187.8 307.6-105.1 307.6-105.1-52.8-91.3 19.3-138.8 19.3-138.8 5.7-105.6 117.5-87.3 117.5-87.3 230.4-53.2 185.6 147.9 185.6 147.9 0 0-136.1 61.3 7.3 232.7z"/>
						<path id="&lt;Path&gt;" class="s8" d="m1394 1195.5c40.8 60.4 202 310.6 139.9 401.3-90 131.5-158.8 431.1-158.8 431.1-153.1 124.7-293.5-30.1-293.5-30.1 79.6-162.1-11.2-536.6-45.7-663.4-7.7-28.6 1.2-59.1 22.9-79.2 128.2-118.3 263-92.7 309.3-78.8 10.6 3.2 19.7 10 25.9 19.1z"/>
						<path id="&lt;Path&gt;" class="s9" d="m1332 951.9c-10.9 34.6-18.3 228.1-18.3 228.1-71.3 58-147 23.6-147 23.6 5.1-85.4 73.6-279.1 73.6-279.1z"/>
						<path id="&lt;Path&gt;" class="s10" d="m1335.4 660.5c0 0 179.1 250.6 72 323.4-107 72.8-234.5-105.3-234.5-105.3 0 0-41.5-137.2 1.9-183.7 43.5-46.6 160.6-34.4 160.6-34.4z"/>
						<path id="&lt;Path&gt;" class="s11" d="m1252.5 600.6c0 0 82.3 19.5 93.8 56.7 11.6 37.2-116.6 71.7-152.6 73.4l-28.9 150.2c0 0-85.6-141.3-51.7-222.9 33.9-81.6 139.4-57.4 139.4-57.4z"/>
						<path id="&lt;Path&gt;" class="s12" d="m1204.3 898.3c-31.4 25.9-121.8-13.6-94.1-66.3 27.7-52.6 97.4 28.1 97.4 28.1z"/>
						<path id="&lt;Path&gt;" class="s13" d="m1554 2656.7c-0.6 13.6 23.3 121.5 36.3 179 5.2 23.2 1.6 47.4-10.2 68l-450 757.3c-5.4 9.2-9.4 19.1-11.8 29.5-8.2 35.5-25.3 122.6-16.4 201.9l23.3 48.3-100.7-22.8-21.9-270.4 28.5-17.4c24.6-15 43.8-37.4 54.8-64.1 40.7-98.8 141.7-350.4 167.7-473 29.6-139.4 184.4-252.5 184.4-252.5l-27.2-64.3z"/>
						<path id="&lt;Path&gt;" class="s14" d="m912.6 3824.8c0 0 54.4-86.2 60.8-119.7 6.4-33.6 24.2-92.8 57.7-75 0 0 15.8 163 10.3 226.7-5.4 63.7 72 61.6 72 61.6 0 0 21.4 3 37 18.7 10.8 10.7 3.1 29.5-12.1 30.4-25.4 1.7-65.6 2.1-107.9-6.1-14.8-2.8-25.7-15.4-26.6-30.4l-11.2-187.6-68.6 86.6z"/>
						<path id="&lt;Path&gt;" class="s15" d="m1285.2 2777.4c0 0-15.9 677.4-18.1 773.6-2.1 96.2 15.2 309.4 111.7 373.2l-42 31.1c0 0-52.4-44.6-103.7-130.4-57.5-96.4-75-114-75-114l19.1-39.1c8.4-17.2 10.9-36.5 7-55.2-20.8-100.9-90.3-436.4-109.3-508.7-22.4-85.3-24-199.2 53.9-294.5 77.9-95.4 156.4-36 156.4-36z"/>
						<path id="&lt;Path&gt;" class="s16" d="m1196.1 3985.8c-3 0-5.6-2.1-6-5.1-3.2-22.6-16.5-113.1-27.5-136.6-12.5-26.8-53.4-139.8 0-149.4 0 0 132.9 194.2 158.5 220.3 25.5 26.2 57.7 9.2 57.7 9.2 0 0 24.8 7.3 43.6 31.3 8.9 11.4 0.6 28.1-13.9 28.3l-89.5 0.8c-26 0.3-49.4-15.5-59.1-39.7-15.7-39.3-42.8-97.1-74.3-122.7l16.4 157c0.3 3.5-2.4 6.6-5.9 6.6z"/>
						<path id="&lt;Path&gt;" class="s17" d="m1396.3 1954.8c0 0-20.1 64.3 10.9 170.2l192.2 671.4c3 10.5-2.7 21.6-13 25.3-57.5 20.6-246.5 78.9-504.6 61.2-13-0.9-23.9-10.1-26.7-22.9-17-76.5-75-337.6-87-391.3-45.5-204.4-96.3-424.9 127.3-558.2 103 44.1 199.1 70.1 300.9 44.3z"/>
						<path id="&lt;Path&gt;" class="s18" d="m1118.1 1430.3c-6.9 17.4-18.4 32.6-32.7 44.6-248 206.3-187.9 342.4-90.7 386.4 99.7 45.2 67.1-10.5 137.6-10.9 70.5-0.3 126.1 118.9 65.8 98.7-60.3-20.3-111 36.4-111 36.4 0 0-373.9-26.4-319.7-274.8 54.3-248.4 273.1-430.2 273.1-430.2 87.6-50.9 125.8 28.5 77.6 149.8z"/>
					</g>
				</g>
			</g>
			<g id="&lt;Group&gt;">
				<path id="&lt;Path&gt;" class="s19" d="m691.5 545.2l47.6 127.6c6.5 17.3 5.2 36.5-3.7 52.8-22.2 40.7-78.6 115.7-208.1 162.8-131.5 47.8-211 17.4-245.9-4.2-12.6-7.8-22.4-19.5-27.7-33.4l-51.8-135z"/>
				<path id="&lt;Path&gt;" class="s20" d="m403.1 419.3l386.3 72.7c19.9 3.8 27.6 28.2 13.4 42.6-69.2 70.5-226.1 234.2-282.9 326.3-6 9.9-18 14.3-29.1 10.8l-395.3-124.6c-17.9-5.6-23.7-28.1-10.7-41.6 68.3-71.5 242.5-250.7 301.4-283.5 5.1-2.9 11.1-3.8 16.9-2.7z"/>
				<path id="&lt;Path&gt;" class="s21" d="m222.9 770.5c-6.4 20.8 31.6 158.9 31.6 158.9 0 0 13.6 24.4 48.4 83.6 34.9 59.2-18.2 211.5-18.2 211.5-59-58.6-64.9-180.1-43-294.3 0 0-42.3-129-29.5-159.3 12.7-30.3 202.7-174.7 202.7-174.7 17.8 6.5-192 174.3-192 174.3z"/>
				<path id="&lt;Path&gt;" class="s3" d="m728.4 514.2c1.4-1.7 4-1.9 5.6-0.4 1.7 1.4 1.9 4 0.5 5.6l-178 205.9-44.5 51.5-11.1 12.8-5.6 6.5c-2 2.3-4.2 4.3-6.7 6.1-9.7 7.1-22.8 9.6-34.4 6.6l-132.1-32.9c-1-0.2-1.6-1.3-1.4-2.3 0.3-1.1 1.3-1.7 2.4-1.5l132.3 31.9c10.3 2.6 21.7 0.3 30.2-6 2.1-1.6 4.1-3.4 5.8-5.4l5.5-6.4 11-13 44.1-51.8 176.4-207.2z"/>
				<path id="&lt;Path&gt;" class="s3" d="m262.1 996.4q0 0 0 0c-1.7-1.5-1.8-4.1-0.3-5.7 1.6-1.6 4.1-1.7 5.7-0.2l0.8 0.7 0.6 0.6 1.2 1.3 2.1 2.5c1.4 1.8 2.6 3.6 4 5.3l3.4 5.6c1.1 1.9 2.1 3.8 3.1 5.7 1.1 1.9 1.9 3.9 2.7 5.8 0.9 2 1.8 4 2.6 6l2.1 6c0.7 2.1 1.4 4.1 1.9 6.2l1.7 6.1c0.5 2.1 1.1 4.1 1.4 6.3 0.8 4.1 1.6 8.3 2.3 12.5l1.4 12.6c0.1 1.1 0.3 2.1 0.3 3.2l0.1 3.2 0.3 6.3c0.6 8.5-0.1 16.9-0.2 25.3 0 2.1-0.3 4.2-0.5 6.3l-0.6 6.3c-0.4 4.2-0.7 8.4-1.2 12.6-1.4 8.3-2.5 16.6-4 24.9l-5.4 24.6c-0.1 0.7-0.8 1.2-1.6 1-0.7-0.1-1.2-0.8-1.1-1.6v-0.1l4.7-24.5c1.3-8.3 2.2-16.6 3.3-24.8 0.4-4.1 0.6-8.3 0.9-12.4l0.5-6.3c0.1-2 0.3-4.1 0.2-6.2 0-8.3 0.4-16.6-0.4-24.8l-0.4-6.2-0.2-3.1c-0.1-1-0.3-2.1-0.4-3.1l-1.7-12.3c-0.8-4-1.7-8-2.5-12-0.3-2.1-1-4-1.6-6l-1.7-5.9c-0.5-2-1.3-3.9-2-5.8l-2.2-5.7c-0.7-1.9-1.7-3.7-2.5-5.5-0.9-1.9-1.7-3.7-2.7-5.5-1-1.7-2-3.5-3-5.2l-3.3-5.1c-1.3-1.5-2.4-3.2-3.7-4.6l-2-2.2-1-1-0.5-0.5-0.4-0.4z"/>
				<path id="&lt;Path&gt;" class="s3" d="m260.6 1047.5c-0.2-2 1.2-3.8 3.2-4.2 2.1-0.4 4.1 1 4.5 3.1 0.2 1.1 0.4 2.2 0.4 3.2l0.2 2.2 0.3 4.5 0.5 9 0.8 17.8 1.6 35.6 2.9 71.1c0.1 1.2-0.8 2.2-2 2.3-1.2 0.1-2.2-0.8-2.3-2l-4.8-71.1-2.5-35.5-1.3-17.8-0.7-8.8-0.7-7.9z"/>
			</g>
			<g id="&lt;Group&gt;">
				<path id="&lt;Path&gt;" class="s22" d="m2711.7 2027.2c0 0 104.5 57.9 113.1 155.8 8.7 98 0.8 504.6-208.8 604.6-209.5 100.1-486.8 77-593 66.1-106.1-10.9-165-83.1-178.1-132.8-13.2-49.6-34.4-234.7 77.3-294.4 111.6-59.7 228.9-151.1 346.1-240.1 117.2-89.1 318.1-234.4 443.4-159.2z"/>
				<path id="&lt;Path&gt;" class="s23" d="m1955.1 2460.3c0 0 28.2 1.5 31.7 59.5 0 0-65.4 58.6-153.8 72.6-6.6 1 9.3-45.3 11.7-51.6 11.4-29.8 47.2-49 110.4-80.5z"/>
				<path id="&lt;Path&gt;" class="s24" d="m2142.1 2470.5c-27.1-26.3-182.9-162.6-182.9-162.6l7 169.8q-2.8 7.1-9.4 11.3c-14.8 9.5-34.6 2.3-41.6-13.7-87.8-198.8-4.5-305.3-4.5-305.3 119.8 20.4 302.5 222.1 302.5 222.1h59.5c34.1 88.6-103.6 104.7-130.6 78.4z"/>
				<path id="&lt;Path&gt;" class="s25" d="m1697.4 2815.6c24.9-21.9 64.6-46.4 122-53.4l19.4 11.9c0 0-12.4 18.2-35 37.5-20.7 12-52.8 28.4-79.4 31.9-25.8 3.5-29.7-12.2-27-27.9z"/>
				<path id="&lt;Path&gt;" class="s3" d="m1844.7 2540.8c15.4 5 22.1 26.8 61.1 12.4 37.7-13.9 65.8-31.9 80.2-42.3 0.3 2.9 0.6 5.8 0.8 8.9 0 0-69 65.6-157.3 79.5-6.6 1.1-11.9-5.5-9.5-11.8 4.3-11.3 12-28.3 24.7-46.7z"/>
				<path id="&lt;Path&gt;" class="s3" d="m1678.6 2834.3c4.9-5.6 11.2-12 18.8-18.7-2.7 15.7 1.2 31.4 27 27.9 26.6-3.5 58.7-19.9 79.4-31.9-26 22.2-65.6 45.7-115.6 44.4-11.1-0.3-17-13.4-9.6-21.7z"/>
				<path id="&lt;Path&gt;" class="s26" d="m2390.2 2483.6c-53.3 12-124 19.3-174.1 55.4 0 0-152.4-61.3-229.3 74.9-62.8 111.2-159 174-159 174-28.8-2.5-24-17.3-24-17.3 28.9-200.8 188-332.4 188-332.4l278.7-3.1z"/>
				<path id="&lt;Path&gt;" class="s27" d="m2305.3 2283.2c-55.5 113.2-160.3 154.7-160.3 154.7l-122.7-3.9 12.4-19.7 52.2 6.2c147-59.5 177-209.8 177-209.8 73.9 5.6 43.3 68.8 41.4 72.5z"/>
				<path id="&lt;Path&gt;" class="s28" d="m2247.9 2432.7c0 0 34.1-92.7 41.4-182.9 0 0-25-21.4-40.6-30.7-5-3-6.9-9.3-4.4-14.6 11.5-23.7 80.9-117 86.1-118.3 28.2-7.1 144-62.1 225.6 49.4 35 47.9-7 195.3-165.8 348l-32.7 6.2z"/>
				<path id="&lt;Path&gt;" class="s29" d="m2429.8 2341.2c-73.6 89.2-220.7 94.4-220.7 94.4h-155.6c0 0 32-45 55.2-55.2 23.3-10.2 54.6 18.4 54.6 18.4 121.2-16.4 216-128.6 216-128.6 26.8 21.2 44.5 39.8 50.5 71z"/>
				<path id="&lt;Path&gt;" class="s30" d="m2434.6 2007.5l20.7 69.1c1 3.2-0.2 6.6-2.9 8.5-10 6.8-36.1 20.4-71.9 7.2-4.1-1.5-6.9-5.3-7.2-9.7l-5-60.2z"/>
				<g id="&lt;Group&gt;">
					<path id="&lt;Path&gt;" class="s31" d="m2455.4 1919.1l-30.3 94.5c-48.1 30.5-100.3 9.5-107.7-25-7.5-34.4 29.8-96.5 29.8-96.5z"/>
					<path id="&lt;Path&gt;" class="s32" d="m2420.8 1968.1c-2-0.8-2.9-3.3-1.8-5.2 3.4-5.7 9.8-17.5 11.5-27.6 0 0 8-5.6-21.5-11.2-29.4-5.6-73.4-14.5-83.6-38.8-10.1-23.8 10.5-85.7 50.1-39 1.5 1.8 4.3 1.7 5.6-0.2 5.7-8.2 21.1-25.5 43.8-16.5 21.4 8.4 24.4 23.6 24.5 31.3 0 2.3 2.1 4 4.4 3.5 10.4-2.5 35.7-5.4 48.7 20 10.8 21 5 33.4-0.5 39.6-1.8 2-0.8 5.1 1.8 5.8 7 1.8 16.3 7.3 16.1 23.6-0.2 22.5-25.4 21.7-32.6 21-1.2-0.1-2.4 0.4-3.1 1.3-5.8 7.1-32.2 37.2-61.9 42-2.6 0.5-4.7-2-4-4.5l11.2-38.3c0.5-1.7-0.4-3.6-2.1-4.3z"/>
					<path id="&lt;Path&gt;" class="s33" d="m2415.9 1973.6c0 0 31.5-23.8 34.7-5.1 3.3 18.7-28 28.6-44 22.3z"/>
				</g>
				<path id="&lt;Path&gt;" class="s34" d="m2049.9 2451.6l-92.8-10.4c-7.6-0.7-14-5.8-16.6-13l-78.1-222.4c-3.1-9.1 4-18.5 13.6-17.8l94.3 6.4c9.9 0.7 18.3 7.5 21.2 17l69.9 232.9z"/>
				<path id="&lt;Path&gt;" class="s3" d="m1933.7 2266c5.9-2.9 14.9 3.2 20.2 13.7 5.2 10.6 4.6 21.5-1.3 24.4-5.9 2.9-14.9-3.2-20.1-13.8-5.2-10.5-4.6-21.4 1.2-24.3z"/>
				<path id="&lt;Path&gt;" class="s35" d="m2041.1 2443.1c-0.3-4.9 3.5-9 8.4-9.3l197.9-10c4.9-0.3 9.1 3.5 9.3 8.4 0.3 4.9-3.5 9.1-8.4 9.3l-197.9 10q-0.2 0.1-0.5 0.1c-4.7 0-8.6-3.7-8.8-8.5z"/>
				<path id="&lt;Path&gt;" class="s36" d="m2289.3 2252c-1.2 0-2.2-0.9-2.2-2.1-0.1-41.9 16-97.3 16.1-97.9 0.4-1.2 1.6-1.8 2.8-1.5 1.1 0.4 1.8 1.6 1.4 2.7-0.1 0.6-16 55.4-15.9 96.6 0 1.2-1 2.2-2.2 2.2q0 0 0 0z"/>
				<path id="&lt;Path&gt;" class="s37" d="m2379.3 2272.4c-0.5 0-0.9-0.2-1.3-0.5-1-0.8-1.2-2.1-0.4-3.1 0.4-0.5 43.4-55.1 58-92.3 0.5-1.2 1.8-1.7 2.9-1.3 1.1 0.5 1.7 1.8 1.2 2.9-14.9 37.8-58.2 92.9-58.7 93.4-0.4 0.6-1 0.9-1.7 0.9z"/>
				<path id="&lt;Path&gt;" class="s38" d="m2440 2356.6l-8.2-11.6c-0.7-1-0.5-2.3 0.5-3 1-0.7 2.4-0.5 3.1 0.5l6.1 8.7c60.4-26.8 97.8-99.1 98.2-99.9 0.6-1 1.9-1.5 3-0.9 1 0.5 1.5 1.8 0.9 2.9-0.4 0.8-39.1 75.7-102 102.6z"/>
			</g>
			<g id="&lt;Group&gt;">
				<path id="&lt;Path&gt;" class="s39" d="m1783 554.2l-151.6 156.9c-8.1 8.4-22.1 1.7-20.8-9.8l17.2-147.1z"/>
				<path id="&lt;Path&gt;" class="s39" d="m2444.9 594.6h-923.2c-24.8 0-44.9-20.1-44.9-44.9v-336.6c0-25.3 20.8-45.6 46.1-44.9l923.1 23.9c24.4 0.7 43.9 20.6 43.9 45v312.6c0 24.8-20.2 44.9-45 44.9z"/>
				<path id="&lt;Path&gt;" class="s40" d="m2415.6 573.6h-870.1c-23.4 0-42.4-17.7-42.4-39.4v-294.8c0-22.2 19.7-40 43.5-39.4l870.1 21c23 0.6 41.3 18 41.3 39.4v273.8c0 21.7-19 39.4-42.4 39.4z"/>
				<path id="&lt;Path&gt;" class="s40" d="m2374.9 292.7h-792.9c-1.2 0-2.2-1-2.2-2.2v-19.2c0-1.2 1-2.2 2.2-2.2h792.9c1.3 0 2.3 1 2.3 2.2v19.2c0 1.2-1 2.2-2.3 2.2z"/>
				<path id="&lt;Path&gt;" class="s40" d="m2374.9 521.1h-792.9c-1.2 0-2.2-1-2.2-2.3v-19.2c0-1.2 1-2.2 2.2-2.2h792.9c1.3 0 2.3 1 2.3 2.2v19.2c0 1.3-1 2.3-2.3 2.3z"/>
				<path id="&lt;Path&gt;" class="s40" d="m2120.3 447.3h-538.3c-1.2 0-2.2-1-2.2-2.2v-19.2c0-1.3 1-2.3 2.2-2.3h538.3c1.2 0 2.2 1 2.2 2.3v19.2c0 1.2-1 2.2-2.2 2.2z"/>
				<path id="&lt;Path&gt;" class="s40" d="m1916.5 370.8h-334.5c-1.2 0-2.2-1-2.2-2.2v-19.2c0-1.2 1-2.2 2.2-2.2h334.5c1.3 0 2.3 1 2.3 2.2v19.2c0 1.2-1 2.2-2.3 2.2z"/>
				<path id="&lt;Path&gt;" class="s40" d="m2374.9 447.3h-218.5c-1.3 0-2.3-1-2.3-2.2v-19.2c0-1.3 1-2.3 2.3-2.3h218.5c1.3 0 2.3 1 2.3 2.3v19.2c0 1.2-1 2.2-2.3 2.2z"/>
				<path id="&lt;Path&gt;" class="s40" d="m2374.9 370.8h-406.5c-1.2 0-2.2-1-2.2-2.2v-19.2c0-1.2 1-2.2 2.2-2.2h406.5c1.3 0 2.3 1 2.3 2.2v19.2c0 1.2-1 2.2-2.3 2.2z"/>
			</g>
		</g>
	</g>
</svg>