<svg xmlns="http://www.w3.org/2000/svg" viewBox="0 0 1440 320"><path fill="#02ba9b" fill-opacity="1" d="M0,128L18.5,160C36.9,192,74,256,111,245.3C147.7,235,185,149,222,138.7C258.5,128,295,192,332,229.3C369.2,267,406,277,443,272C480,267,517,245,554,208C590.8,171,628,117,665,122.7C701.5,128,738,192,775,186.7C812.3,181,849,107,886,90.7C923.1,75,960,117,997,149.3C1033.8,181,1071,203,1108,197.3C1144.6,192,1182,160,1218,165.3C1255.4,171,1292,213,1329,208C1366.2,203,1403,149,1422,122.7L1440,96L1440,0L1421.5,0C1403.1,0,1366,0,1329,0C1292.3,0,1255,0,1218,0C1181.5,0,1145,0,1108,0C1070.8,0,1034,0,997,0C960,0,923,0,886,0C849.2,0,812,0,775,0C738.5,0,702,0,665,0C627.7,0,591,0,554,0C516.9,0,480,0,443,0C406.2,0,369,0,332,0C295.4,0,258,0,222,0C184.6,0,148,0,111,0C73.8,0,37,0,18,0L0,0Z"></path></svg>